<?xml version="1.0" encoding="UTF-8" standalone="no"?>
<!-- Created with Inkscape (http://www.inkscape.org/) -->

<svg
   xmlns:dc="http://purl.org/dc/elements/1.1/"
   xmlns:cc="http://creativecommons.org/ns#"
   xmlns:rdf="http://www.w3.org/1999/02/22-rdf-syntax-ns#"
   xmlns:svg="http://www.w3.org/2000/svg"
   xmlns="http://www.w3.org/2000/svg"
   xmlns:xlink="http://www.w3.org/1999/xlink"
   xmlns:sodipodi="http://sodipodi.sourceforge.net/DTD/sodipodi-0.dtd"
   xmlns:inkscape="http://www.inkscape.org/namespaces/inkscape"
   width="98.566811mm"
   height="54.860123mm"
   viewBox="0 0 98.566811 54.860123"
   version="1.1"
   id="svg2596"
   inkscape:version="0.92.3 (2405546, 2018-03-11)"
   sodipodi:docname="logo2.svg">
  <defs
     id="defs2590">
    <linearGradient
       id="linearGradient2417"
       spreadMethod="pad"
       gradientTransform="matrix(2e-7,-3628.08,-3628.08,-2e-7,5986.37,8905.8)"
       gradientUnits="userSpaceOnUse"
       y2="0"
       x2="1"
       y1="0"
       x1="0">
      <stop
         id="stop2409"
         offset="0"
         style="stop-opacity:1;stop-color:#00adef" />
      <stop
         id="stop2411"
         offset="0.0102041"
         style="stop-opacity:1;stop-color:#00adef" />
      <stop
         id="stop2413"
         offset="0.377551"
         style="stop-opacity:1;stop-color:#137bb6" />
      <stop
         id="stop2415"
         offset="1"
         style="stop-opacity:1;stop-color:#003380" />
    </linearGradient>
    <linearGradient
       inkscape:collect="always"
       xlink:href="#linearGradient2423"
       id="linearGradient2425"
       x1="12783.861"
       y1="15261.949"
       x2="15013.734"
       y2="16347.754"
       gradientUnits="userSpaceOnUse" />
    <linearGradient
       inkscape:collect="always"
       id="linearGradient2423">
      <stop
         style="stop-color:#003380;stop-opacity:1"
         offset="0"
         id="stop2419" />
      <stop
         style="stop-color:#2a7fff;stop-opacity:1"
         offset="1"
         id="stop2421" />
    </linearGradient>
    <linearGradient
       inkscape:collect="always"
       xlink:href="#linearGradient2405"
       id="linearGradient2407"
       x1="13737.647"
       y1="16334.991"
       x2="13745.138"
       y2="16024.134"
       gradientUnits="userSpaceOnUse" />
    <linearGradient
       inkscape:collect="always"
       id="linearGradient2405">
      <stop
         style="stop-color:#ffcc00;stop-opacity:1"
         offset="0"
         id="stop2401" />
      <stop
         style="stop-color:#fff6d5;stop-opacity:1"
         offset="1"
         id="stop2403" />
    </linearGradient>
    <linearGradient
       inkscape:collect="always"
       xlink:href="#linearGradient2417"
       id="linearGradient2356"
       x1="12703.953"
       y1="16936.107"
       x2="14667.512"
       y2="15815.272"
       gradientUnits="userSpaceOnUse"
       gradientTransform="rotate(5.3442457,14562.163,15718.321)" />
  </defs>
  <sodipodi:namedview
     id="base"
     pagecolor="#ffffff"
     bordercolor="#666666"
     borderopacity="1.0"
     inkscape:pageopacity="0.0"
     inkscape:pageshadow="2"
     inkscape:zoom="1.979899"
     inkscape:cx="173.935"
     inkscape:cy="116.89324"
     inkscape:document-units="mm"
     inkscape:current-layer="layer1"
     showgrid="false"
     inkscape:snap-page="true"
     fit-margin-top="0"
     fit-margin-left="0"
     fit-margin-right="0"
     fit-margin-bottom="0"
     inkscape:window-width="1366"
     inkscape:window-height="705"
     inkscape:window-x="-8"
     inkscape:window-y="-8"
     inkscape:window-maximized="1" />
  <metadata
     id="metadata2593">
    <rdf:RDF>
      <cc:Work
         rdf:about="">
        <dc:format>image/svg+xml</dc:format>
        <dc:type
           rdf:resource="http://purl.org/dc/dcmitype/StillImage" />
        <dc:title></dc:title>
      </cc:Work>
    </rdf:RDF>
  </metadata>
  <g
     inkscape:label="Capa 1"
     inkscape:groupmode="layer"
     id="layer1"
     transform="translate(-43.320764,-121.40328)">
    <g
       transform="matrix(0.03527778,0,0,-0.03527778,-389.61041,713.38485)"
       id="g3378">
      <path
         sodipodi:nodetypes="ccccccccc"
         inkscape:connector-curvature="0"
         id="path2348"
         d="m 12763.878,16112.148 v 610.479 h 1820.2 v -835.544 l -151.683,-20.251 c 0,340.253 0.172,464.643 0,704.111 h -1518.707 l -1.532,-550.051 c -119.369,70.317 -117.632,70.099 -148.278,91.256 z"
         style="fill:#00aad4;stroke:#00aad4;stroke-width:7.5px;stroke-linecap:butt;stroke-linejoin:miter;stroke-opacity:1" />
      <g
         id="g3193">
        <path
           style="fill:url(#linearGradient2425);fill-opacity:1;stroke:none;stroke-width:4.43108225px;stroke-linecap:butt;stroke-linejoin:miter;stroke-opacity:1"
           d="m 12708.34,15843.758 c 540.93,-335.956 2860.187,-361.223 2130.085,588.701 461.029,-415.263 150.855,-787.359 -300.984,-890.946 l 115.023,-316.024 -1920.306,1.085 232.552,417.787 -12.66,-147.173 148.758,-3.167 44.31,71.219 -6.33,-69.635 h 94.952 l 34.816,69.635 -9.495,-69.635 h 101.282 l 34.815,69.635 -15.825,-69.635 h 79.126 l 31.651,66.464 c -236.479,60.034 -421.887,57.432 -781.77,281.69 z"
           id="path828"
           inkscape:connector-curvature="0"
           sodipodi:nodetypes="ccccccccccccccccccc" />
        <g
           id="g2517"
           transform="translate(-58.051673,-2.8089519)">
          <path
             d="m 13870.078,16215.757 c 0,68.723 -55.711,124.435 -124.434,124.435 -68.726,0 -124.671,-56.149 -124.434,-124.873 0.117,-34.126 13.975,-65.011 36.327,-87.422 17.4,-17.446 30.129,-38.989 36.561,-62.775 l 10.033,-37.109 h 81.569 l 9.503,35.147 c 6.571,24.298 19.731,46.223 37.679,63.869 22.958,22.575 37.196,53.988 37.196,88.728"
             style="fill:url(#linearGradient2407);fill-opacity:1;fill-rule:nonzero;stroke:none;stroke-width:0.06287879"
             id="path18"
             inkscape:connector-curvature="0" />
          <path
             d="m 13764.485,15984.552 h -39.77 c -11.268,0 -20.908,8.321 -21.55,18.879 l -3.357,40.751 90.072,0.577 -3.845,-41.328 c -0.642,-10.558 -10.282,-18.879 -21.55,-18.879"
             style="fill:#59595b;fill-opacity:1;fill-rule:nonzero;stroke:none;stroke-width:0.06287879"
             id="path20-6"
             inkscape:connector-curvature="0" />
          <path
             d="m 13781.781,16016.059 c -25.16,-1.076 -50.411,0.213 -75.569,-0.899 -2.234,-0.1 -2.066,-3.36 0.125,-3.433 25.179,-0.836 50.424,0.724 75.605,-0.08 2.825,-0.09 2.7,4.53 -0.161,4.408"
             style="fill:#808183;fill-opacity:1;fill-rule:nonzero;stroke:none;stroke-width:0.06287879"
             id="path24"
             inkscape:connector-curvature="0" />
          <path
             d="m 13755.789,16403.467 c 0,-8.019 -4.263,-36.847 -9.523,-36.847 -5.26,0 -9.523,28.828 -9.523,36.847 0,8.019 4.263,14.519 9.523,14.519 5.26,0 9.523,-6.5 9.523,-14.519"
             style="fill:#ffcc00;fill-opacity:1;fill-rule:nonzero;stroke:none;stroke-width:0.06287879"
             id="path26-4"
             inkscape:connector-curvature="0" />
          <path
             d="m 13874.45,16359.191 c -6.082,-5.226 -25.169,-27.246 -21.741,-31.236 3.428,-3.989 28.071,11.565 34.154,16.79 6.082,5.226 8.233,12.696 4.806,16.685 -3.428,3.989 -11.137,2.987 -17.219,-2.239"
             style="fill:#ffcc00;fill-opacity:1;fill-rule:nonzero;stroke:none;stroke-width:0.06287879"
             id="path28"
             inkscape:connector-curvature="0" />
          <path
             d="m 13920.698,16230.546 c -7.955,-1.011 -37.091,-0.414 -37.753,4.804 -0.663,5.218 27.398,13.08 35.353,14.09 7.955,1.01 14.941,-2.401 15.604,-7.618 0.662,-5.217 -5.25,-10.267 -13.204,-11.276"
             style="fill:#ffcc00;fill-opacity:1;fill-rule:nonzero;stroke:none;stroke-width:0.06287879"
             id="path30"
             inkscape:connector-curvature="0" />
          <path
             d="m 13628.973,16368.766 c 6.313,-4.944 26.38,-26.074 23.138,-30.215 -3.243,-4.141 -28.567,10.275 -34.881,15.22 -6.313,4.944 -8.802,12.309 -5.56,16.449 3.243,4.141 10.99,3.49 17.303,-1.454"
             style="fill:#ffcc00;fill-opacity:1;fill-rule:nonzero;stroke:none;stroke-width:0.06287879"
             id="path32"
             inkscape:connector-curvature="0" />
          <path
             d="m 13568.712,16251.154 c 7.955,-1.01 37.09,-0.412 37.753,4.805 0.662,5.217 -27.398,13.08 -35.353,14.09 -7.955,1.011 -14.941,-2.4 -15.604,-7.618 -0.662,-5.217 5.249,-10.266 13.204,-11.277"
             style="fill:#ffcc00;fill-opacity:1;fill-rule:nonzero;stroke:none;stroke-width:0.06287879"
             id="path34"
             inkscape:connector-curvature="0" />
        </g>
        <g
           id="g3160">
          <g
             transform="matrix(16.795446,0,0,-16.838528,11927.664,17993.601)"
             style="fill:#ffffff;stroke:#ffffff"
             id="g949">
            <path
               sodipodi:nodetypes="ccccc"
               style="fill:#ffffff;stroke:#ffffff;stroke-width:0.28275248px;stroke-linecap:butt;stroke-linejoin:miter;stroke-opacity:1"
               d="m 77.012063,152.35864 -0.986165,2.70253 h 5.190477 l 0.986165,-2.70253 z"
               id="path927"
               inkscape:connector-curvature="0" />
            <path
               sodipodi:nodetypes="ccccc"
               style="fill:#ffffff;stroke:#ffffff;stroke-width:0.28275248px;stroke-linecap:butt;stroke-linejoin:miter;stroke-opacity:1"
               d="m 70.470695,152.35864 -0.986165,2.70253 h 4.412268 l 0.986165,-2.70253 z"
               id="path927-9"
               inkscape:connector-curvature="0" />
            <path
               sodipodi:nodetypes="ccccc"
               style="fill:#ffffff;stroke:#ffffff;stroke-width:0.28275248px;stroke-linecap:butt;stroke-linejoin:miter;stroke-opacity:1"
               d="m 93.34178,152.35864 -0.986165,2.70253 h 5.014982 l 0.986165,-2.70253 z"
               id="path927-4"
               inkscape:connector-curvature="0" />
            <path
               sodipodi:nodetypes="ccccc"
               style="fill:#ffffff;stroke:#ffffff;stroke-width:0.2822642px;stroke-linecap:butt;stroke-linejoin:miter;stroke-opacity:1"
               d="m 84.668199,152.35864 -0.986165,2.70253 h 5.012548 l 0.986165,-2.70253 z"
               id="path927-0"
               inkscape:connector-curvature="0" />
            <path
               sodipodi:nodetypes="ccccc"
               style="fill:#ffffff;stroke:#ffffff;stroke-width:0.28275248px;stroke-linecap:butt;stroke-linejoin:miter;stroke-opacity:1"
               d="m 101.92811,152.35864 -0.98617,2.70253 h 4.87002 l 0.98616,-2.70253 z"
               id="path927-1"
               inkscape:connector-curvature="0" />
            <path
               sodipodi:nodetypes="ccccc"
               style="fill:#ffffff;stroke:#ffffff;stroke-width:0.28275248px;stroke-linecap:butt;stroke-linejoin:miter;stroke-opacity:1"
               d="m 110.75535,152.35864 -0.98616,2.70253 h 4.62764 l 0.98617,-2.70253 z"
               id="path927-17"
               inkscape:connector-curvature="0" />
            <path
               sodipodi:nodetypes="ccccc"
               style="fill:#ffffff;stroke:#ffffff;stroke-width:0.33455488px;stroke-linecap:butt;stroke-linejoin:miter;stroke-opacity:1"
               d="m 60.385016,152.3698 -1.33937,2.66544 7.45591,0.0259 0.982092,-2.69137 z"
               id="path927-9-1"
               inkscape:connector-curvature="0" />
          </g>
          <path
             sodipodi:nodetypes="ccccc"
             style="fill:#ffffff;stroke:#ffffff;stroke-width:4.73536873px;stroke-linecap:butt;stroke-linejoin:miter;stroke-opacity:1"
             d="m 13930.098,15428.106 -16.563,-45.506 h 77.963 l 16.563,45.506 z"
             id="path927-1-3"
             inkscape:connector-curvature="0" />
          <path
             sodipodi:nodetypes="ccccc"
             style="fill:#ffffff;stroke:#ffffff;stroke-width:4.51234579px;stroke-linecap:butt;stroke-linejoin:miter;stroke-opacity:1"
             d="m 13529.482,15521.799 -9.193,-25.257 h 84.228 l 9.193,25.257 z"
             id="path927-1-3-7"
             inkscape:connector-curvature="0" />
          <path
             sodipodi:nodetypes="ccccc"
             style="fill:#ffffff;stroke:#ffffff;stroke-width:3.83193827px;stroke-linecap:butt;stroke-linejoin:miter;stroke-opacity:1"
             d="m 13673.693,15521.799 -9.193,-25.257 h 81.794 l 9.193,25.257 z"
             id="path927-1-3-0"
             inkscape:connector-curvature="0" />
          <path
             sodipodi:nodetypes="ccccc"
             style="fill:#ffffff;stroke:#ffffff;stroke-width:3.55248642px;stroke-linecap:butt;stroke-linejoin:miter;stroke-opacity:1"
             d="m 13821.951,15521.799 -9.193,-25.257 h 77.723 l 9.193,25.257 z"
             id="path927-1-3-03"
             inkscape:connector-curvature="0" />
          <path
             sodipodi:nodetypes="ccccc"
             style="fill:#ffffff;stroke:#ffffff;stroke-width:3.62434053px;stroke-linecap:butt;stroke-linejoin:miter;stroke-opacity:1"
             d="m 13964.199,15521.799 -9.192,-25.257 h 77.962 l 9.193,25.257 z"
             id="path927-1-3-6"
             inkscape:connector-curvature="0" />
          <path
             sodipodi:nodetypes="ccccc"
             style="fill:#ffffff;stroke:#ffffff;stroke-width:4.73536921px;stroke-linecap:butt;stroke-linejoin:miter;stroke-opacity:1"
             d="m 14169.512,15382.6 -16.563,45.506 h 83.301 l 16.563,-45.506 z"
             id="path927-1-3-2"
             inkscape:connector-curvature="0" />
          <path
             sodipodi:nodetypes="ccccc"
             style="fill:#ffffff;stroke:#ffffff;stroke-width:4.73536921px;stroke-linecap:butt;stroke-linejoin:miter;stroke-opacity:1"
             d="m 14298.009,15382.6 -16.564,45.506 h 83.301 l 16.563,-45.506 z"
             id="path927-1-3-2-1"
             inkscape:connector-curvature="0" />
          <path
             sodipodi:nodetypes="ccccc"
             style="fill:#ffffff;stroke:#ffffff;stroke-width:4.73536921px;stroke-linecap:butt;stroke-linejoin:miter;stroke-opacity:1"
             d="m 14428.358,15382.6 -16.563,45.506 h 84.921 l 16.563,-45.506 z"
             id="path927-1-3-2-4"
             inkscape:connector-curvature="0" />
          <path
             sodipodi:nodetypes="ccccc"
             style="fill:#ffffff;stroke:#ffffff;stroke-width:4.09157944px;stroke-linecap:butt;stroke-linejoin:miter;stroke-opacity:1"
             d="m 14386.887,15496.542 -9.193,25.257 h 84.105 l 10.008,-25.257 z"
             id="path927-1-3-2-8"
             inkscape:connector-curvature="0" />
          <path
             sodipodi:nodetypes="ccccc"
             style="fill:#ffffff;stroke:#ffffff;stroke-width:3.89870644px;stroke-linecap:butt;stroke-linejoin:miter;stroke-opacity:1"
             d="m 14128.041,15496.542 -9.193,25.257 h 83.3 l 9.193,-25.257 z"
             id="path927-1-3-2-7"
             inkscape:connector-curvature="0" />
          <path
             sodipodi:nodetypes="ccccc"
             style="fill:#ffffff;stroke:#ffffff;stroke-width:4.09157991px;stroke-linecap:butt;stroke-linejoin:miter;stroke-opacity:1"
             d="m 14256.537,15496.542 -9.193,25.257 h 83.301 l 9.193,-25.257 z"
             id="path927-1-3-2-8-4"
             inkscape:connector-curvature="0" />
        </g>
        <path
           style="fill:url(#linearGradient2356);fill-opacity:1;stroke:none;stroke-width:7.5px;stroke-linecap:butt;stroke-linejoin:miter;stroke-opacity:1"
           d="m 12677.169,16780.579 c -867.196,-529.788 850.209,-1282.709 1980.854,-955.915 -393.935,-271.367 -2366.426,-145.12 -2385.959,596.953 1.069,233.097 269.381,331.694 405.105,358.962 z"
           id="path2346"
           inkscape:connector-curvature="0"
           sodipodi:nodetypes="cccc" />
      </g>
    </g>
  </g>
</svg>
