<?xml version="1.0" encoding="UTF-8" standalone="no"?>
<!-- Created with Inkscape (http://www.inkscape.org/) -->

<svg
   xmlns:dc="http://purl.org/dc/elements/1.1/"
   xmlns:cc="http://creativecommons.org/ns#"
   xmlns:rdf="http://www.w3.org/1999/02/22-rdf-syntax-ns#"
   xmlns:svg="http://www.w3.org/2000/svg"
   xmlns="http://www.w3.org/2000/svg"
   xmlns:sodipodi="http://sodipodi.sourceforge.net/DTD/sodipodi-0.dtd"
   xmlns:inkscape="http://www.inkscape.org/namespaces/inkscape"
   width="162.55653mm"
   height="103.262mm"
   viewBox="0 0 162.55653 103.262"
   version="1.1"
   id="svg8"
   inkscape:version="0.92.3 (2405546, 2018-03-11)"
   sodipodi:docname="logo innovamid.svg">
  <defs
     id="defs2" />
  <sodipodi:namedview
     id="base"
     pagecolor="#ffffff"
     bordercolor="#666666"
     borderopacity="1.0"
     inkscape:pageopacity="0.0"
     inkscape:pageshadow="2"
     inkscape:zoom="1.979899"
     inkscape:cx="339.01731"
     inkscape:cy="22.862183"
     inkscape:document-units="mm"
     inkscape:current-layer="layer1"
     showgrid="false"
     showguides="true"
     inkscape:snap-page="false"
     inkscape:window-width="1366"
     inkscape:window-height="705"
     inkscape:window-x="-8"
     inkscape:window-y="-8"
     inkscape:window-maximized="1"
     fit-margin-top="0"
     fit-margin-left="0"
     fit-margin-right="0"
     fit-margin-bottom="0"
     inkscape:guide-bbox="true">
    <sodipodi:guide
       position="-17.575892,9.4494045"
       orientation="0,1"
       id="guide1165"
       inkscape:locked="false" />
    <sodipodi:guide
       position="12.189732,16.252976"
       orientation="0,1"
       id="guide1167"
       inkscape:locked="false" />
    <sodipodi:guide
       position="42.739588,12.155423"
       orientation="-0.93969262,0.34202014"
       id="guide1282"
       inkscape:locked="false"
       inkscape:label=""
       inkscape:color="rgb(0,0,255)" />
    <sodipodi:guide
       position="110.46644,12.166644"
       orientation="0,1"
       id="guide1284"
       inkscape:locked="false" />
    <sodipodi:guide
       position="87.422465,17.761123"
       orientation="0,1"
       id="guide1286"
       inkscape:locked="false" />
  </sodipodi:namedview>
  <metadata
     id="metadata5">
    <rdf:RDF>
      <cc:Work
         rdf:about="">
        <dc:format>image/svg+xml</dc:format>
        <dc:type
           rdf:resource="http://purl.org/dc/dcmitype/StillImage" />
        <dc:title></dc:title>
      </cc:Work>
    </rdf:RDF>
  </metadata>
  <g
     inkscape:label="Capa 1"
     inkscape:groupmode="layer"
     id="layer1"
     transform="translate(-24.246963,-61.201261)">
    <g
       id="g1268">
      <g
         style="fill:#0000ff;stroke:#0000ff"
         id="g832">
        <path
           style="fill:#3771c8;stroke:#3771c8;stroke-width:0.26458332px;stroke-linecap:butt;stroke-linejoin:miter;stroke-opacity:1"
           d="m 151.37946,125.20982 7.9375,-0.94494 0.37798,-51.782737 -108.668156,0.377976 -0.188986,30.616071 C 21.957649,82.189342 37.232617,65.353185 50.459822,61.331845 32.388683,64.263521 25.051878,70.91758 24.379464,80.419643 26.28465,123.01979 141.54439,145.28049 162.90774,129.17857 c -32.01268,6.09804 -66.325007,0.008 -103.376491,-20.5997 L 59.34226,81.364581 h 91.84821 z"
           id="path826"
           inkscape:connector-curvature="0"
           sodipodi:nodetypes="cccccccccccc" />
        <path
           style="fill:#000080;stroke:#000080;stroke-width:0.26458332px;stroke-linecap:butt;stroke-linejoin:miter;stroke-opacity:1"
           d="m 45.924107,127.47768 c 32.299303,20.06019 170.783943,21.56893 127.188983,-35.151787 27.52837,24.795717 9.00769,47.013827 -17.972,53.199117 l 6.86812,18.87 -114.662943,-0.0648 13.885875,-24.94633 -0.755952,8.78779 8.882441,0.18909 2.645833,-4.25255 -0.377976,4.158 h 5.669643 l 2.078868,-4.158 -0.566965,4.158 h 6.047621 l 2.078868,-4.158 -0.944941,4.158 h 4.724702 l 1.889882,-3.96864 c -14.12031,-3.58468 -25.191164,-3.42929 -46.680059,-16.81994 z"
           id="path828"
           inkscape:connector-curvature="0"
           sodipodi:nodetypes="ccccccccccccccccccc" />
        <g
           id="g908"
           transform="matrix(0.00450936,0,0,-0.00450936,80.669082,130.35305)">
          <path
             d="m 6766.3393,6685.6429 c 0,910.0017 -737.7013,1647.703 -1647.703,1647.703 -910.0266,0.01 -1650.8335,-743.4879 -1647.6946,-1653.5062 1.557,-451.8744 185.0477,-860.8444 481.0241,-1157.5951 230.4083,-231.0078 398.9536,-516.2769 484.1214,-831.2368 l 132.8596,-491.3817 h 1080.0957 l 125.8408,465.396 c 86.9995,321.7456 261.2565,612.0603 498.9169,845.7324 304.0028,298.9155 492.5391,714.8711 492.5391,1174.8884"
             style="fill:#ffcc00;fill-opacity:1;fill-rule:nonzero;stroke:none;stroke-width:0.83261055"
             id="path18"
             inkscape:connector-curvature="0" />
          <path
             d="m 5368.1197,3624.134 h -526.6095 c -149.2038,0 -276.8513,110.1877 -285.3523,249.983 l -44.453,539.6065 1192.6813,7.6434 -50.9058,-547.2499 c -8.501,-139.7953 -136.1568,-249.983 -285.3607,-249.983"
             style="fill:#59595b;fill-opacity:1;fill-rule:nonzero;stroke:none;stroke-width:0.83261055"
             id="path20"
             inkscape:connector-curvature="0" />
          <path
             d="m 5597.1543,4041.3385 c -333.1608,-14.2543 -667.5206,2.8225 -1000.648,-11.9064 -29.5827,-1.3072 -27.368,-44.4863 1.6485,-45.4522 333.4106,-11.0737 667.6954,9.5834 1001.1309,-1.0158 37.4092,-1.1906 35.7523,59.9896 -2.1314,58.3744"
             style="fill:#808183;fill-opacity:1;fill-rule:nonzero;stroke:none;stroke-width:0.83261055"
             id="path24"
             inkscape:connector-curvature="0" />
          <path
             d="m 5252.978,9171.2019 c 0,-106.1745 -56.451,-487.9015 -126.0988,-487.9015 -69.6479,0 -126.0989,381.727 -126.0989,487.9015 0,106.1828 56.451,192.2581 126.0989,192.2581 69.6478,0 126.0988,-86.0753 126.0988,-192.2581"
             style="fill:#ffcc00;fill-opacity:1;fill-rule:nonzero;stroke:none;stroke-width:0.83261055"
             id="path26"
             inkscape:connector-curvature="0" />
          <path
             d="m 6824.2307,8584.9275 c -80.5384,-69.1983 -333.2773,-360.7868 -287.8834,-413.6159 45.3856,-52.8208 371.7023,153.1337 452.2407,222.3236 80.5384,69.2066 109.0304,168.1208 63.6448,220.9416 -45.394,52.8208 -147.472,39.549 -228.0021,-29.6493"
             style="fill:#ffcc00;fill-opacity:1;fill-rule:nonzero;stroke:none;stroke-width:0.83261055"
             id="path28"
             inkscape:connector-curvature="0" />
          <path
             d="m 7436.6158,6881.4646 c -105.3336,-13.38 -491.132,-5.4702 -499.8994,63.6198 -8.7757,69.09 362.785,173.1913 468.1186,186.5714 105.3419,13.3717 197.8449,-31.7891 206.6206,-100.8708 8.7674,-69.09 -69.5063,-135.9487 -174.8398,-149.3204"
             style="fill:#ffcc00;fill-opacity:1;fill-rule:nonzero;stroke:none;stroke-width:0.83261055"
             id="path30"
             inkscape:connector-curvature="0" />
          <path
             d="m 3573.7358,8711.7091 c 83.5941,-65.4598 349.3217,-345.2586 306.384,-400.0943 -42.9377,-54.8274 -378.2716,136.0652 -461.874,201.5417 -83.5941,65.4598 -116.5572,162.9835 -73.6195,217.8109 42.9378,54.8357 145.5154,46.2182 229.1095,-19.2583"
             style="fill:#ffcc00;fill-opacity:1;fill-rule:nonzero;stroke:none;stroke-width:0.83261055"
             id="path32"
             inkscape:connector-curvature="0" />
          <path
             d="m 2775.7951,7154.3527 c 105.3336,-13.3717 491.132,-5.4619 499.8994,63.6281 8.7757,69.0817 -362.785,173.1913 -468.1186,186.5631 -105.3419,13.3883 -197.8449,-31.7724 -206.6206,-100.8625 -8.7674,-69.09 69.5063,-135.9403 174.8398,-149.3287"
             style="fill:#ffcc00;fill-opacity:1;fill-rule:nonzero;stroke:none;stroke-width:0.83261055"
             id="path34"
             inkscape:connector-curvature="0" />
        </g>
      </g>
    </g>
    <g
       id="g949"
       style="fill:#ffffff;stroke:#ffffff"
       transform="matrix(1.002869,0,0,1.0054414,-0.69070665,-0.89106476)">
      <path
         inkscape:connector-curvature="0"
         id="path927"
         d="m 77.012063,152.35864 -0.986165,2.70253 5.190477,0 0.986165,-2.70253 z"
         style="fill:#ffffff;stroke:#ffffff;stroke-width:0.28275248px;stroke-linecap:butt;stroke-linejoin:miter;stroke-opacity:1"
         sodipodi:nodetypes="ccccc" />
      <path
         inkscape:connector-curvature="0"
         id="path927-9"
         d="m 70.470695,152.35864 -0.986165,2.70253 4.412268,0 0.986165,-2.70253 z"
         style="fill:#ffffff;stroke:#ffffff;stroke-width:0.28275248px;stroke-linecap:butt;stroke-linejoin:miter;stroke-opacity:1"
         sodipodi:nodetypes="ccccc" />
      <path
         inkscape:connector-curvature="0"
         id="path927-4"
         d="m 93.34178,152.35864 -0.986165,2.70253 5.014982,0 0.986165,-2.70253 z"
         style="fill:#ffffff;stroke:#ffffff;stroke-width:0.28275248px;stroke-linecap:butt;stroke-linejoin:miter;stroke-opacity:1"
         sodipodi:nodetypes="ccccc" />
      <path
         inkscape:connector-curvature="0"
         id="path927-0"
         d="m 84.668199,152.35864 -0.986165,2.70253 5.012548,0 0.986165,-2.70253 z"
         style="fill:#ffffff;stroke:#ffffff;stroke-width:0.2822642px;stroke-linecap:butt;stroke-linejoin:miter;stroke-opacity:1"
         sodipodi:nodetypes="ccccc" />
      <path
         inkscape:connector-curvature="0"
         id="path927-1"
         d="m 101.92811,152.35864 -0.98617,2.70253 4.87002,0 0.98616,-2.70253 z"
         style="fill:#ffffff;stroke:#ffffff;stroke-width:0.28275248px;stroke-linecap:butt;stroke-linejoin:miter;stroke-opacity:1"
         sodipodi:nodetypes="ccccc" />
      <path
         inkscape:connector-curvature="0"
         id="path927-17"
         d="m 110.75535,152.35864 -0.98616,2.70253 h 4.62764 l 0.98617,-2.70253 z"
         style="fill:#ffffff;stroke:#ffffff;stroke-width:0.28275248px;stroke-linecap:butt;stroke-linejoin:miter;stroke-opacity:1"
         sodipodi:nodetypes="ccccc" />
      <path
         inkscape:connector-curvature="0"
         id="path927-9-1"
         d="m 60.385016,152.3698 -1.33937,2.66544 7.45591,0.0259 0.982092,-2.69137 z"
         style="fill:#ffffff;stroke:#ffffff;stroke-width:0.33455488px;stroke-linecap:butt;stroke-linejoin:miter;stroke-opacity:1"
         sodipodi:nodetypes="ccccc" />
    </g>
    <path
       inkscape:connector-curvature="0"
       id="path927-1-3"
       d="m 118.87619,152.29662 -0.989,2.71724 4.65521,0 0.98899,-2.71724 z"
       style="fill:#ffffff;stroke:#ffffff;stroke-width:0.28275248px;stroke-linecap:butt;stroke-linejoin:miter;stroke-opacity:1"
       sodipodi:nodetypes="ccccc" />
    <path
       inkscape:connector-curvature="0"
       id="path927-1-3-7"
       d="m 94.955095,146.70214 -0.548921,1.50815 5.02937,0 0.548921,-1.50815 z"
       style="fill:#ffffff;stroke:#ffffff;stroke-width:0.26943561px;stroke-linecap:butt;stroke-linejoin:miter;stroke-opacity:1"
       sodipodi:nodetypes="ccccc" />
    <path
       inkscape:connector-curvature="0"
       id="path927-1-3-0"
       d="m 103.56606,146.70214 -0.54892,1.50815 4.88398,0 0.54892,-1.50815 z"
       style="fill:#ffffff;stroke:#ffffff;stroke-width:0.22880799px;stroke-linecap:butt;stroke-linejoin:miter;stroke-opacity:1"
       sodipodi:nodetypes="ccccc" />
    <path
       inkscape:connector-curvature="0"
       id="path927-1-3-03"
       d="m 112.41862,146.70214 -0.54892,1.50815 h 4.64092 l 0.54892,-1.50815 z"
       style="fill:#ffffff;stroke:#ffffff;stroke-width:0.2121217px;stroke-linecap:butt;stroke-linejoin:miter;stroke-opacity:1"
       sodipodi:nodetypes="ccccc" />
    <path
       inkscape:connector-curvature="0"
       id="path927-1-3-6"
       d="m 120.91241,146.70214 -0.54892,1.50815 4.6552,0 0.54892,-1.50815 z"
       style="fill:#ffffff;stroke:#ffffff;stroke-width:0.21641216px;stroke-linecap:butt;stroke-linejoin:miter;stroke-opacity:1"
       sodipodi:nodetypes="ccccc" />
    <path
       inkscape:connector-curvature="0"
       id="path927-1-3-2"
       d="m 133.17177,155.01386 -0.98899,-2.71724 h 4.97396 l 0.98899,2.71724 z"
       style="fill:#ffffff;stroke:#ffffff;stroke-width:0.28275251px;stroke-linecap:butt;stroke-linejoin:miter;stroke-opacity:1"
       sodipodi:nodetypes="ccccc" />
    <path
       inkscape:connector-curvature="0"
       id="path927-1-3-2-1"
       d="m 140.84441,155.01386 -0.989,-2.71724 h 4.97396 l 0.989,2.71724 z"
       style="fill:#ffffff;stroke:#ffffff;stroke-width:0.28275254px;stroke-linecap:butt;stroke-linejoin:miter;stroke-opacity:1"
       sodipodi:nodetypes="ccccc" />
    <path
       inkscape:connector-curvature="0"
       id="path927-1-3-2-4"
       d="m 148.62767,155.01386 -0.989,-2.71724 5.07069,0 0.98899,2.71721 z"
       style="fill:#ffffff;stroke:#ffffff;stroke-width:0.28275254px;stroke-linecap:butt;stroke-linejoin:miter;stroke-opacity:1"
       sodipodi:nodetypes="ccccc" />
    <path
       inkscape:connector-curvature="0"
       id="path927-1-3-2-8"
       d="m 146.15137,148.21029 -0.54892,-1.50815 5.02198,0 0.59762,1.50815 z"
       style="fill:#ffffff;stroke:#ffffff;stroke-width:0.24431135px;stroke-linecap:butt;stroke-linejoin:miter;stroke-opacity:1"
       sodipodi:nodetypes="ccccc" />
    <path
       inkscape:connector-curvature="0"
       id="path927-1-3-2-7"
       d="m 130.69547,148.21029 -0.54892,-1.50815 h 4.97397 l 0.54892,1.50815 z"
       style="fill:#ffffff;stroke:#ffffff;stroke-width:0.23279476px;stroke-linecap:butt;stroke-linejoin:miter;stroke-opacity:1"
       sodipodi:nodetypes="ccccc" />
    <path
       inkscape:connector-curvature="0"
       id="path927-1-3-2-8-4"
       d="m 138.36811,148.21029 -0.54892,-1.50815 h 4.97396 l 0.54892,1.50815 z"
       style="fill:#ffffff;stroke:#ffffff;stroke-width:0.24431136px;stroke-linecap:butt;stroke-linejoin:miter;stroke-opacity:1"
       sodipodi:nodetypes="ccccc" />
  </g>
</svg>
