<?xml version="1.0" encoding="UTF-8" standalone="no"?>
<!-- Created with Inkscape (http://www.inkscape.org/) -->

<svg
   xmlns:dc="http://purl.org/dc/elements/1.1/"
   xmlns:cc="http://creativecommons.org/ns#"
   xmlns:rdf="http://www.w3.org/1999/02/22-rdf-syntax-ns#"
   xmlns:svg="http://www.w3.org/2000/svg"
   xmlns="http://www.w3.org/2000/svg"
   xmlns:sodipodi="http://sodipodi.sourceforge.net/DTD/sodipodi-0.dtd"
   xmlns:inkscape="http://www.inkscape.org/namespaces/inkscape"
   width="210mm"
   height="297mm"
   viewBox="0 0 210 297"
   version="1.1"
   id="svg8"
   inkscape:version="0.92.3 (2405546, 2018-03-11)"
   sodipodi:docname="logo innovamid.svg">
  <defs
     id="defs2" />
  <sodipodi:namedview
     id="base"
     pagecolor="#ffffff"
     bordercolor="#666666"
     borderopacity="1.0"
     inkscape:pageopacity="0.0"
     inkscape:pageshadow="2"
     inkscape:zoom="0.98994949"
     inkscape:cx="646.22603"
     inkscape:cy="698.82947"
     inkscape:document-units="mm"
     inkscape:current-layer="layer1"
     showgrid="false"
     showguides="false"
     inkscape:snap-page="false"
     inkscape:window-width="1366"
     inkscape:window-height="705"
     inkscape:window-x="-8"
     inkscape:window-y="-8"
     inkscape:window-maximized="1" />
  <metadata
     id="metadata5">
    <rdf:RDF>
      <cc:Work
         rdf:about="">
        <dc:format>image/svg+xml</dc:format>
        <dc:type
           rdf:resource="http://purl.org/dc/dcmitype/StillImage" />
        <dc:title></dc:title>
      </cc:Work>
    </rdf:RDF>
  </metadata>
  <g
     inkscape:label="Capa 1"
     inkscape:groupmode="layer"
     id="layer1">
    <g
       id="g832"
       style="fill:#0000ff;stroke:#0000ff">
      <path
         sodipodi:nodetypes="cccccccccccc"
         inkscape:connector-curvature="0"
         id="path826"
         d="m 151.37946,125.20982 7.9375,-0.94494 0.37798,-51.782737 -108.668156,0.377976 -0.188986,30.616071 C 21.957649,82.189342 37.232617,65.353185 50.459822,61.331845 32.388683,64.263521 25.051878,70.91758 24.379464,80.419643 26.28465,123.01979 141.54439,145.28049 162.90774,129.17857 c -32.01268,6.09804 -66.325007,0.008 -103.376491,-20.5997 L 59.34226,81.364581 h 91.84821 z"
         style="fill:#3771c8;stroke:#3771c8;stroke-width:0.26458332px;stroke-linecap:butt;stroke-linejoin:miter;stroke-opacity:1" />
      <path
         sodipodi:nodetypes="ccccccccccccccccccc"
         inkscape:connector-curvature="0"
         id="path828"
         d="m 45.924107,127.47768 c 32.299303,20.06019 170.783943,21.56893 127.188983,-35.151787 27.52837,24.795717 8.88269,46.823087 -18.097,53.008377 l 6.75772,18.99608 -113.959821,-0.37797 13.418153,-24.56845 -0.755952,8.88244 8.882441,0.18898 2.645833,-4.34672 -0.377976,4.53571 5.669643,-0.18899 2.078868,-3.77976 -0.566965,4.34673 6.047621,-0.56697 2.078868,-3.77976 -0.944941,4.34673 h 4.724702 l 1.889882,-4.7247 c -14.12031,-3.58468 -25.191164,-3.42929 -46.680059,-16.81994 z"
         style="fill:#000080;stroke:#000080;stroke-width:0.26458332px;stroke-linecap:butt;stroke-linejoin:miter;stroke-opacity:1" />
      <g
         transform="matrix(0.00450936,0,0,-0.00450936,80.669082,130.35305)"
         id="g908">
        <path
           inkscape:connector-curvature="0"
           id="path18"
           style="fill:#ffcc00;fill-opacity:1;fill-rule:nonzero;stroke:none;stroke-width:0.83261055"
           d="m 6766.3393,6685.6429 c 0,910.0017 -737.7013,1647.703 -1647.703,1647.703 -910.0266,0.01 -1650.8335,-743.4879 -1647.6946,-1653.5062 1.557,-451.8744 185.0477,-860.8444 481.0241,-1157.5951 230.4083,-231.0078 398.9536,-516.2769 484.1214,-831.2368 l 132.8596,-491.3817 h 1080.0957 l 125.8408,465.396 c 86.9995,321.7456 261.2565,612.0603 498.9169,845.7324 304.0028,298.9155 492.5391,714.8711 492.5391,1174.8884" />
        <path
           inkscape:connector-curvature="0"
           id="path20"
           style="fill:#59595b;fill-opacity:1;fill-rule:nonzero;stroke:none;stroke-width:0.83261055"
           d="m 5368.1197,3624.134 h -526.6095 c -149.2038,0 -276.8513,110.1877 -285.3523,249.983 l -44.453,539.6065 1192.6813,7.6434 -50.9058,-547.2499 c -8.501,-139.7953 -136.1568,-249.983 -285.3607,-249.983" />
        <path
           inkscape:connector-curvature="0"
           id="path24"
           style="fill:#808183;fill-opacity:1;fill-rule:nonzero;stroke:none;stroke-width:0.83261055"
           d="m 5597.1543,4041.3385 c -333.1608,-14.2543 -667.5206,2.8225 -1000.648,-11.9064 -29.5827,-1.3072 -27.368,-44.4863 1.6485,-45.4522 333.4106,-11.0737 667.6954,9.5834 1001.1309,-1.0158 37.4092,-1.1906 35.7523,59.9896 -2.1314,58.3744" />
        <path
           inkscape:connector-curvature="0"
           id="path26"
           style="fill:#ffcc00;fill-opacity:1;fill-rule:nonzero;stroke:none;stroke-width:0.83261055"
           d="m 5252.978,9171.2019 c 0,-106.1745 -56.451,-487.9015 -126.0988,-487.9015 -69.6479,0 -126.0989,381.727 -126.0989,487.9015 0,106.1828 56.451,192.2581 126.0989,192.2581 69.6478,0 126.0988,-86.0753 126.0988,-192.2581" />
        <path
           inkscape:connector-curvature="0"
           id="path28"
           style="fill:#ffcc00;fill-opacity:1;fill-rule:nonzero;stroke:none;stroke-width:0.83261055"
           d="m 6824.2307,8584.9275 c -80.5384,-69.1983 -333.2773,-360.7868 -287.8834,-413.6159 45.3856,-52.8208 371.7023,153.1337 452.2407,222.3236 80.5384,69.2066 109.0304,168.1208 63.6448,220.9416 -45.394,52.8208 -147.472,39.549 -228.0021,-29.6493" />
        <path
           inkscape:connector-curvature="0"
           id="path30"
           style="fill:#ffcc00;fill-opacity:1;fill-rule:nonzero;stroke:none;stroke-width:0.83261055"
           d="m 7436.6158,6881.4646 c -105.3336,-13.38 -491.132,-5.4702 -499.8994,63.6198 -8.7757,69.09 362.785,173.1913 468.1186,186.5714 105.3419,13.3717 197.8449,-31.7891 206.6206,-100.8708 8.7674,-69.09 -69.5063,-135.9487 -174.8398,-149.3204" />
        <path
           inkscape:connector-curvature="0"
           id="path32"
           style="fill:#ffcc00;fill-opacity:1;fill-rule:nonzero;stroke:none;stroke-width:0.83261055"
           d="m 3573.7358,8711.7091 c 83.5941,-65.4598 349.3217,-345.2586 306.384,-400.0943 -42.9377,-54.8274 -378.2716,136.0652 -461.874,201.5417 -83.5941,65.4598 -116.5572,162.9835 -73.6195,217.8109 42.9378,54.8357 145.5154,46.2182 229.1095,-19.2583" />
        <path
           inkscape:connector-curvature="0"
           id="path34"
           style="fill:#ffcc00;fill-opacity:1;fill-rule:nonzero;stroke:none;stroke-width:0.83261055"
           d="m 2775.7951,7154.3527 c 105.3336,-13.3717 491.132,-5.4619 499.8994,63.6281 8.7757,69.0817 -362.785,173.1913 -468.1186,186.5631 -105.3419,13.3883 -197.8449,-31.7724 -206.6206,-100.8625 -8.7674,-69.09 69.5063,-135.9403 174.8398,-149.3287" />
      </g>
    </g>
    <g
       id="g949"
       style="fill:#ffffff;stroke:#ffffff">
      <path
         inkscape:connector-curvature="0"
         id="path846"
         d="m 149.67093,155.41396 -5.34539,-0.20045 -0.66817,-2.53906 4.87767,0.13364 z"
         style="fill:#ffffff;stroke:#ffffff;stroke-width:0.26458332px;stroke-linecap:butt;stroke-linejoin:miter;stroke-opacity:1" />
      <path
         inkscape:connector-curvature="0"
         id="path846-7"
         d="m 140.33889,155.31223 -4.31066,-0.20045 -0.53883,-2.53906 3.93348,0.13364 z"
         style="fill:#ffffff;stroke:#ffffff;stroke-width:0.23759907px;stroke-linecap:butt;stroke-linejoin:miter;stroke-opacity:1" />
      <path
         inkscape:connector-curvature="0"
         id="path846-7-4"
         d="m 133.84314,155.31225 -4.31066,-0.20045 -0.53883,-2.53906 3.93348,0.13364 z"
         style="fill:#ffffff;stroke:#ffffff;stroke-width:0.23759909px;stroke-linecap:butt;stroke-linejoin:miter;stroke-opacity:1" />
      <path
         inkscape:connector-curvature="0"
         id="path846-7-9"
         d="m 146.73889,148.89778 -4.31066,-0.20045 -0.53883,-2.53906 3.93348,0.13364 z"
         style="fill:#ffffff;stroke:#ffffff;stroke-width:0.23759909px;stroke-linecap:butt;stroke-linejoin:miter;stroke-opacity:1" />
      <path
         inkscape:connector-curvature="0"
         id="path846-7-44"
         d="m 138.98809,149.03142 -4.31066,-0.20045 -0.53883,-2.53906 3.93348,0.13364 z"
         style="fill:#ffffff;stroke:#ffffff;stroke-width:0.23759909px;stroke-linecap:butt;stroke-linejoin:miter;stroke-opacity:1" />
      <path
         sodipodi:nodetypes="ccccc"
         inkscape:connector-curvature="0"
         id="path846-7-0"
         d="m 131.70499,148.89778 -4.31066,-0.20045 0.3298,-2.33861 2.79758,-0.0668 z"
         style="fill:#ffffff;stroke:#ffffff;stroke-width:0.23759909px;stroke-linecap:butt;stroke-linejoin:miter;stroke-opacity:1" />
      <path
         inkscape:connector-curvature="0"
         id="path907"
         d="m 121.42485,155.35342 0.75595,-2.64583 -4.06324,-0.18899 -1.03944,2.83482 z"
         style="fill:#ffffff;stroke:#ffffff;stroke-width:0.26458332px;stroke-linecap:butt;stroke-linejoin:miter;stroke-opacity:1" />
      <path
         inkscape:connector-curvature="0"
         id="path909"
         d="m 113.20387,155.25893 -4.25224,0.0945 1.41742,-2.74033 3.68526,-0.0945 z"
         style="fill:#ffffff;stroke:#ffffff;stroke-width:0.26458332px;stroke-linecap:butt;stroke-linejoin:miter;stroke-opacity:1" />
      <path
         inkscape:connector-curvature="0"
         id="path911"
         d="m 101.48661,155.16443 h 3.68526 l 0.94494,-2.36235 h -3.21279 z"
         style="fill:#ffffff;stroke:#ffffff;stroke-width:0.26458332px;stroke-linecap:butt;stroke-linejoin:miter;stroke-opacity:1" />
      <path
         inkscape:connector-curvature="0"
         id="path913"
         d="m 97.565,155.28255 -4.829863,-0.0398 1.252744,-3.17701 4.734774,0.0277 z"
         style="fill:#ffffff;stroke:#ffffff;stroke-width:0.26458332px;stroke-linecap:butt;stroke-linejoin:miter;stroke-opacity:1"
         sodipodi:nodetypes="ccccc" />
      <path
         inkscape:connector-curvature="0"
         id="path915"
         d="m 96.745692,144.89226 4.079458,0.16132 -1.322919,3.59077 -4.141526,-0.18899 z"
         style="fill:#ffffff;stroke:#ffffff;stroke-width:0.26458332px;stroke-linecap:butt;stroke-linejoin:miter;stroke-opacity:1"
         sodipodi:nodetypes="ccccc" />
      <path
         inkscape:connector-curvature="0"
         id="path917"
         d="m 104.60491,145.52604 -1.32292,3.30729 h 3.96875 l 1.13393,-3.30729 z"
         style="fill:#ffffff;stroke:#ffffff;stroke-width:0.26458332px;stroke-linecap:butt;stroke-linejoin:miter;stroke-opacity:1" />
      <path
         inkscape:connector-curvature="0"
         id="path919"
         d="m 112.25893,146.1875 c 0.56696,0 4.25223,0.18899 4.25223,0.18899 l -1.22842,2.64583 -3.87426,-0.18899 z"
         style="fill:#ffffff;stroke:#ffffff;stroke-width:0.26458332px;stroke-linecap:butt;stroke-linejoin:miter;stroke-opacity:1" />
      <path
         inkscape:connector-curvature="0"
         id="path921"
         d="m 120.38542,146.093 2.17336,-0.0945 1.32292,2.74033 -4.44123,-0.0945 z"
         style="fill:#ffffff;stroke:#ffffff;stroke-width:0.26458332px;stroke-linecap:butt;stroke-linejoin:miter;stroke-opacity:1" />
      <path
         inkscape:connector-curvature="0"
         id="path923"
         d="m 60.570683,152.14062 c 0.472472,-0.18898 7.559524,0 7.559524,0 l -1.700892,2.74033 -6.331101,0.18899 z"
         style="fill:#ffffff;stroke:#ffffff;stroke-width:0.26458332px;stroke-linecap:butt;stroke-linejoin:miter;stroke-opacity:1" />
      <path
         inkscape:connector-curvature="0"
         id="path925"
         d="m 70.776041,152.32961 -0.472469,3.1183 4.441219,-0.18898 1.228423,-2.92932 z"
         style="fill:#ffffff;stroke:#ffffff;stroke-width:0.26458332px;stroke-linecap:butt;stroke-linejoin:miter;stroke-opacity:1" />
      <path
         inkscape:connector-curvature="0"
         id="path927"
         d="m 77.957589,152.61309 -0.944941,2.55134 5.008184,-0.0945 0.944941,-2.17336 z"
         style="fill:#ffffff;stroke:#ffffff;stroke-width:0.26458332px;stroke-linecap:butt;stroke-linejoin:miter;stroke-opacity:1" />
      <path
         inkscape:connector-curvature="0"
         id="path929"
         d="m 85.517113,152.4241 5.008184,0.0945 -1.322916,2.55134 h -4.819198 z"
         style="fill:#ffffff;stroke:#ffffff;stroke-width:0.26458332px;stroke-linecap:butt;stroke-linejoin:miter;stroke-opacity:1" />
    </g>
  </g>
</svg>
